<?xml version="1.0" encoding="utf-8"?>
<!-- Generator: Adobe Illustrator 21.0.0, SVG Export Plug-In . SVG Version: 6.00 Build 0)  -->
<svg version="1.1" id="Capa_1" xmlns="http://www.w3.org/2000/svg" xmlns:xlink="http://www.w3.org/1999/xlink" x="0px" y="0px"
	 viewBox="0 0 52 52" style="enable-background:new 0 0 52 52;" xml:space="preserve">
<style type="text/css">
	.st0{fill:#878181;}
	.st1{fill:none;stroke:#000000;stroke-width:4;stroke-miterlimit:10;}
</style>
<path d="M36.5,4.2c-4.7,0-9,2.5-11.5,6.6c-2.4-4.1-6.5-6.6-11.2-6.6c-4.1,0-7.7,1.9-10.2,5.1c-1.8,2.3-3.1,5.4-3.4,8.7
	c0,0.3-0.2,1.6,0.2,3.9c0.1,0.4,0.2,0.9,0.3,1.3c0.9,3.7,2.7,7,5.2,9.8L46.3,8.7C43.8,5.9,40.4,4.2,36.5,4.2z M15.6,11.9
	c-4.2,0-7.7,3.5-7.7,7.7c0,0.6-0.5,1-1,1s-1-0.4-1-1c0-5.3,4.3-9.6,9.6-9.6c0.5,0,1,0.5,1,1C16.5,11.5,16.1,11.9,15.6,11.9z
	 M50.1,18c-0.1-1.1-0.3-2.1-0.6-3.1L11.2,38.1L25,50.6l17.7-15.8c3.5-3.2,5.9-7.1,6.9-11.5C50.4,20.2,50.1,18.4,50.1,18z"/>
<path class="st0" d="M16.5,10.9c0,0.6-0.5,1-1,1c-4.2,0-7.7,3.5-7.7,7.7c0,0.6-0.5,1-1,1s-1-0.4-1-1c0-5.3,4.3-9.6,9.6-9.6
	C16.1,10,16.5,10.4,16.5,10.9z"/>
<line class="st1" x1="3.1" y1="38.6" x2="51.1" y2="10"/>
</svg>
