<?xml version="1.0" encoding="utf-8"?>
<!-- Generator: Adobe Illustrator 21.0.0, SVG Export Plug-In . SVG Version: 6.00 Build 0)  -->
<svg version="1.1" id="Layer_1" xmlns="http://www.w3.org/2000/svg" xmlns:xlink="http://www.w3.org/1999/xlink" x="0px" y="0px"
	 viewBox="0 0 496 496" style="enable-background:new 0 0 496 496;" xml:space="preserve">
<style type="text/css">
	.st0{fill:#00B0B9;}
	.st1{fill:#728483;}
	.st2{fill:#FFFFFF;}
	.st3{fill:#95BABA;}
</style>
<path class="st0" d="M296,416c0-4.4,3.6-8,8-8h104c4.4,0,8,3.6,8,8s-3.6,8-8,8H304C299.6,424,296,420.4,296,416z"/>
<path class="st0" d="M456,416c0,4.4-3.6,8-8,8h-16c-4.4,0-8-3.6-8-8s3.6-8,8-8h16C452.4,408,456,411.6,456,416z"/>
<path class="st1" d="M488,72v48H8V72c0-8.8,7.2-16,16-16h48v32h32V56h288v32h32V56h48C480.8,56,488,63.2,488,72z"/>
<path class="st2" d="M472,48h-40V24c0-4.4-3.6-8-8-8h-32c-4.4,0-8,3.6-8,8v24H112V24c0-4.4-3.6-8-8-8H72c-4.4,0-8,3.6-8,8v24H24
	C10.8,48,0,58.8,0,72v384c0,13.3,10.8,24,24,24h448c13.3,0,24-10.8,24-24V72C496,58.8,485.3,48,472,48z M16,72c0-4.4,3.6-8,8-8h40
	v24c0,4.4,3.6,8,8,8h32c4.4,0,8-3.6,8-8V64h272v24c0,4.4,3.6,8,8,8h32c4.4,0,8-3.6,8-8V64h40c4.4,0,8,3.6,8,8v40H16V72z M400,32h16
	v48h-16V32z M80,32h16v48H80V32z M480,456c0,4.4-3.6,8-8,8H24c-4.4,0-8-3.6-8-8V128h464V456z"/>
<rect x="400" y="32" class="st3" width="16" height="48"/>
<rect x="80" y="32" class="st3" width="16" height="48"/>
<path class="st3" d="M16,128v328c0,4.4,3.6,8,8,8h448c4.4,0,8-3.6,8-8V128H16z M304,152c0-4.4,3.6-8,8-8h48c4.4,0,8,3.6,8,8v48
	c0,4.4-3.6,8-8,8h-48c-4.4,0-8-3.6-8-8V152z M304,232c0-4.4,3.6-8,8-8h48c4.4,0,8,3.6,8,8v48c0,4.4-3.6,8-8,8h-48c-4.4,0-8-3.6-8-8
	V232z M304,312c0-4.4,3.6-8,8-8h48c4.4,0,8,3.6,8,8v48c0,4.4-3.6,8-8,8h-48c-4.4,0-8-3.6-8-8V312z M104,440c0,4.4-3.6,8-8,8H48
	c-4.4,0-8-3.6-8-8v-48c0-4.4,3.6-8,8-8h48c4.4,0,8,3.6,8,8V440z M104,360c0,4.4-3.6,8-8,8H48c-4.4,0-8-3.6-8-8v-48c0-4.4,3.6-8,8-8
	h48c4.4,0,8,3.6,8,8V360z M104,280c0,4.4-3.6,8-8,8H48c-4.4,0-8-3.6-8-8v-48c0-4.4,3.6-8,8-8h48c4.4,0,8,3.6,8,8V280z M104,200
	c0,4.4-3.6,8-8,8H48c-4.4,0-8-3.6-8-8v-48c0-4.4,3.6-8,8-8h48c4.4,0,8,3.6,8,8V200z M192,440c0,4.4-3.6,8-8,8h-48c-4.4,0-8-3.6-8-8
	v-48c0-4.4,3.6-8,8-8h48c4.4,0,8,3.6,8,8V440z M192,360c0,4.4-3.6,8-8,8h-48c-4.4,0-8-3.6-8-8v-48c0-4.4,3.6-8,8-8h48
	c4.4,0,8,3.6,8,8V360z M192,280c0,4.4-3.6,8-8,8h-48c-4.4,0-8-3.6-8-8v-48c0-4.4,3.6-8,8-8h48c4.4,0,8,3.6,8,8V280z M192,200
	c0,4.4-3.6,8-8,8h-48c-4.4,0-8-3.6-8-8v-48c0-4.4,3.6-8,8-8h48c4.4,0,8,3.6,8,8V200z M280,440c0,4.4-3.6,8-8,8h-48c-4.4,0-8-3.6-8-8
	v-48c0-4.4,3.6-8,8-8h48c4.4,0,8,3.6,8,8V440z M280,360c0,4.4-3.6,8-8,8h-48c-4.4,0-8-3.6-8-8v-48c0-4.4,3.6-8,8-8h48
	c4.4,0,8,3.6,8,8V360z M280,280c0,4.4-3.6,8-8,8h-48c-4.4,0-8-3.6-8-8v-48c0-4.4,3.6-8,8-8h48c4.4,0,8,3.6,8,8V280z M280,200
	c0,4.4-3.6,8-8,8h-48c-4.4,0-8-3.6-8-8v-48c0-4.4,3.6-8,8-8h48c4.4,0,8,3.6,8,8V200z M408,424H304c-4.4,0-8-3.6-8-8s3.6-8,8-8h104
	c4.4,0,8,3.6,8,8S412.4,424,408,424z M448,424h-16c-4.4,0-8-3.6-8-8s3.6-8,8-8h16c4.4,0,8,3.6,8,8S452.4,424,448,424z M456,360
	c0,4.4-3.6,8-8,8h-48c-4.4,0-8-3.6-8-8v-48c0-4.4,3.6-8,8-8h48c4.4,0,8,3.6,8,8V360z M456,280c0,4.4-3.6,8-8,8h-48c-4.4,0-8-3.6-8-8
	v-48c0-4.4,3.6-8,8-8h48c4.4,0,8,3.6,8,8V280z M456,200c0,4.4-3.6,8-8,8h-48c-4.4,0-8-3.6-8-8v-48c0-4.4,3.6-8,8-8h48
	c4.4,0,8,3.6,8,8V200z"/>
<path class="st2" d="M96,144H48c-4.4,0-8,3.6-8,8v48c0,4.4,3.6,8,8,8h48c4.4,0,8-3.6,8-8v-48C104,147.6,100.4,144,96,144z M88,192
	H56v-32h32V192z"/>
<path class="st2" d="M184,144h-48c-4.4,0-8,3.6-8,8v48c0,4.4,3.6,8,8,8h48c4.4,0,8-3.6,8-8v-48C192,147.6,188.4,144,184,144z
	 M176,192h-32v-32h32V192z"/>
<path class="st2" d="M272,144h-48c-4.4,0-8,3.6-8,8v48c0,4.4,3.6,8,8,8h48c4.4,0,8-3.6,8-8v-48C280,147.6,276.4,144,272,144z
	 M264,192h-32v-32h32V192z"/>
<path class="st2" d="M360,144h-48c-4.4,0-8,3.6-8,8v48c0,4.4,3.6,8,8,8h48c4.4,0,8-3.6,8-8v-48C368,147.6,364.4,144,360,144z
	 M352,192h-32v-32h32V192z"/>
<path class="st2" d="M448,144h-48c-4.4,0-8,3.6-8,8v48c0,4.4,3.6,8,8,8h48c4.4,0,8-3.6,8-8v-48C456,147.6,452.4,144,448,144z
	 M440,192h-32v-32h32V192z"/>
<path class="st2" d="M96,224H48c-4.4,0-8,3.6-8,8v48c0,4.4,3.6,8,8,8h48c4.4,0,8-3.6,8-8v-48C104,227.6,100.4,224,96,224z M88,272
	H56v-32h32V272z"/>
<path class="st2" d="M184,224h-48c-4.4,0-8,3.6-8,8v48c0,4.4,3.6,8,8,8h48c4.4,0,8-3.6,8-8v-48C192,227.6,188.4,224,184,224z
	 M176,272h-32v-32h32V272z"/>
<path class="st2" d="M272,224h-48c-4.4,0-8,3.6-8,8v48c0,4.4,3.6,8,8,8h48c4.4,0,8-3.6,8-8v-48C280,227.6,276.4,224,272,224z
	 M264,272h-32v-32h32V272z"/>
<path class="st2" d="M360,224h-48c-4.4,0-8,3.6-8,8v48c0,4.4,3.6,8,8,8h48c4.4,0,8-3.6,8-8v-48C368,227.6,364.4,224,360,224z
	 M352,272h-32v-32h32V272z"/>
<path class="st2" d="M448,224h-48c-4.4,0-8,3.6-8,8v48c0,4.4,3.6,8,8,8h48c4.4,0,8-3.6,8-8v-48C456,227.6,452.4,224,448,224z
	 M440,272h-32v-32h32V272z"/>
<path class="st2" d="M96,304H48c-4.4,0-8,3.6-8,8v48c0,4.4,3.6,8,8,8h48c4.4,0,8-3.6,8-8v-48C104,307.6,100.4,304,96,304z M88,352
	H56v-32h32V352z"/>
<path class="st2" d="M184,304h-48c-4.4,0-8,3.6-8,8v48c0,4.4,3.6,8,8,8h48c4.4,0,8-3.6,8-8v-48C192,307.6,188.4,304,184,304z
	 M176,352h-32v-32h32V352z"/>
<path class="st2" d="M272,304h-48c-4.4,0-8,3.6-8,8v48c0,4.4,3.6,8,8,8h48c4.4,0,8-3.6,8-8v-48C280,307.6,276.4,304,272,304z
	 M264,352h-32v-32h32V352z"/>
<path class="st2" d="M360,304h-48c-4.4,0-8,3.6-8,8v48c0,4.4,3.6,8,8,8h48c4.4,0,8-3.6,8-8v-48C368,307.6,364.4,304,360,304z
	 M352,352h-32v-32h32V352z"/>
<path class="st2" d="M448,304h-48c-4.4,0-8,3.6-8,8v48c0,4.4,3.6,8,8,8h48c4.4,0,8-3.6,8-8v-48C456,307.6,452.4,304,448,304z
	 M440,352h-32v-32h32V352z"/>
<path class="st2" d="M96,384H48c-4.4,0-8,3.6-8,8v48c0,4.4,3.6,8,8,8h48c4.4,0,8-3.6,8-8v-48C104,387.6,100.4,384,96,384z M88,432
	H56v-32h32V432z"/>
<path class="st2" d="M184,384h-48c-4.4,0-8,3.6-8,8v48c0,4.4,3.6,8,8,8h48c4.4,0,8-3.6,8-8v-48C192,387.6,188.4,384,184,384z
	 M176,432h-32v-32h32V432z"/>
<path class="st2" d="M272,384h-48c-4.4,0-8,3.6-8,8v48c0,4.4,3.6,8,8,8h48c4.4,0,8-3.6,8-8v-48C280,387.6,276.4,384,272,384z
	 M264,432h-32v-32h32V432z"/>
<path class="st2" d="M416,416c0,4.4-3.6,8-8,8H304c-4.4,0-8-3.6-8-8s3.6-8,8-8h104C412.4,408,416,411.6,416,416z"/>
<path class="st2" d="M456,416c0,4.4-3.6,8-8,8h-16c-4.4,0-8-3.6-8-8s3.6-8,8-8h16C452.4,408,456,411.6,456,416z"/>
</svg>
