<?xml version="1.0" encoding="utf-8"?>
<!-- Generator: Adobe Illustrator 21.0.0, SVG Export Plug-In . SVG Version: 6.00 Build 0)  -->
<svg version="1.1" id="Layer_1" xmlns="http://www.w3.org/2000/svg" xmlns:xlink="http://www.w3.org/1999/xlink" x="0px" y="0px"
	 viewBox="0 0 496 496" style="enable-background:new 0 0 496 496;" xml:space="preserve">
<style type="text/css">
	.st0{fill:#FFFFFF;stroke:#000000;stroke-miterlimit:10;}
	.st1{fill:#728483;}
	.st2{fill:#95BABA;}
	.st3{fill:#FDFFFF;}
	.st4{fill:#FFFFFF;}
	.st5{fill:none;stroke:#FFFFFF;stroke-width:16;stroke-linejoin:round;stroke-miterlimit:10;}
</style>
<path class="st0" d="M416,424.3c0,4.4-3.6,8-8,8H304c-4.4,0-8-3.6-8-8s3.6-8,8-8h104C412.4,416.3,416,419.9,416,424.3z"/>
<path class="st0" d="M456,424.3c0,4.4-3.6,8-8,8h-16c-4.4,0-8-3.6-8-8s3.6-8,8-8h16C452.4,416.3,456,419.9,456,424.3z"/>
<rect x="448" y="160.3" class="st0" width="8" height="129.3"/>
<path class="st1" d="M488,80.3v48H8v-48c0-8.8,7.2-16,16-16h48v32h32v-32h288v32h32v-32h48C480.8,64.3,488,71.5,488,80.3z"/>
<rect x="448" y="160.3" class="st2" width="8" height="129.3"/>
<path class="st3" d="M472,56.3h-40v-24c0-4.4-3.6-8-8-8h-32c-4.4,0-8,3.6-8,8v24H112v-24c0-4.4-3.6-8-8-8H72c-4.4,0-8,3.6-8,8v24H24
	c-13.3,0-24,10.7-24,24v384c0,13.3,10.7,24,24,24h448c13.3,0,24-10.7,24-24v-384C496,67,485.3,56.3,472,56.3z M16,80.3
	c0-4.4,3.6-8,8-8h40v24c0,4.4,3.6,8,8,8h32c4.4,0,8-3.6,8-8v-24h272v24c0,4.4,3.6,8,8,8h32c4.4,0,8-3.6,8-8v-24h40c4.4,0,8,3.6,8,8
	v40H16V80.3z M400,40.3h16v48h-16V40.3z M80,40.3h16v48H80V40.3z M480,464.3c0,4.4-3.6,8-8,8H24c-4.4,0-8-3.6-8-8v-328h464V464.3z"
	/>
<rect x="80" y="40.3" class="st2" width="16" height="48"/>
<rect x="400" y="40.3" class="st2" width="16" height="48"/>
<path class="st2" d="M16,136.3v328c0,4.4,3.6,8,8,8h448c4.4,0,8-3.6,8-8v-328H16z M104,448.3c0,4.4-3.6,8-8,8H48c-4.4,0-8-3.6-8-8
	v-48c0-4.4,3.6-8,8-8h48c4.4,0,8,3.6,8,8V448.3z M104,368.3c0,4.4-3.6,8-8,8H48c-4.4,0-8-3.6-8-8v-48c0-4.4,3.6-8,8-8h48
	c4.4,0,8,3.6,8,8V368.3z M192,448.3c0,4.4-3.6,8-8,8h-48c-4.4,0-8-3.6-8-8v-48c0-4.4,3.6-8,8-8h48c4.4,0,8,3.6,8,8V448.3z
	 M192,368.3c0,4.4-3.6,8-8,8h-48c-4.4,0-8-3.6-8-8v-48c0-4.4,3.6-8,8-8h48c4.4,0,8,3.6,8,8V368.3z M280,448.3c0,4.4-3.6,8-8,8h-48
	c-4.4,0-8-3.6-8-8v-48c0-4.4,3.6-8,8-8h48c4.4,0,8,3.6,8,8V448.3z M280,368.3c0,4.4-3.6,8-8,8h-48c-4.4,0-8-3.6-8-8v-48
	c0-4.4,3.6-8,8-8h48c4.4,0,8,3.6,8,8V368.3z M408,432.3H304c-4.4,0-8-3.6-8-8s3.6-8,8-8h104c4.4,0,8,3.6,8,8S412.4,432.3,408,432.3z
	 M304,368.3v-48c0-4.4,3.6-8,8-8h48c4.4,0,8,3.6,8,8v48c0,4.4-3.6,8-8,8h-48C307.6,376.3,304,372.7,304,368.3z M448,432.3h-16
	c-4.4,0-8-3.6-8-8s3.6-8,8-8h16c4.4,0,8,3.6,8,8S452.4,432.3,448,432.3z M456,368.3c0,4.4-3.6,8-8,8h-48c-4.4,0-8-3.6-8-8v-48
	c0-4.4,3.6-8,8-8h48c4.4,0,8,3.6,8,8V368.3z M456,289.6H48V160.3h408V289.6z"/>
<path class="st4" d="M96,312.3H48c-4.4,0-8,3.6-8,8v48c0,4.4,3.6,8,8,8h48c4.4,0,8-3.6,8-8v-48C104,315.9,100.4,312.3,96,312.3z
	 M88,360.3H56v-32h32V360.3z"/>
<path class="st4" d="M184,312.3h-48c-4.4,0-8,3.6-8,8v48c0,4.4,3.6,8,8,8h48c4.4,0,8-3.6,8-8v-48C192,315.9,188.4,312.3,184,312.3z
	 M176,360.3h-32v-32h32V360.3z"/>
<path class="st4" d="M272,312.3h-48c-4.4,0-8,3.6-8,8v48c0,4.4,3.6,8,8,8h48c4.4,0,8-3.6,8-8v-48C280,315.9,276.4,312.3,272,312.3z
	 M264,360.3h-32v-32h32V360.3z"/>
<path class="st4" d="M360,312.3h-48c-4.4,0-8,3.6-8,8v48c0,4.4,3.6,8,8,8h48c4.4,0,8-3.6,8-8v-48C368,315.9,364.4,312.3,360,312.3z
	 M352,360.3h-32v-32h32V360.3z"/>
<path class="st4" d="M448,312.3h-48c-4.4,0-8,3.6-8,8v48c0,4.4,3.6,8,8,8h48c4.4,0,8-3.6,8-8v-48C456,315.9,452.4,312.3,448,312.3z
	 M440,360.3h-32v-32h32V360.3z"/>
<path class="st4" d="M96,392.3H48c-4.4,0-8,3.6-8,8v48c0,4.4,3.6,8,8,8h48c4.4,0,8-3.6,8-8v-48C104,395.9,100.4,392.3,96,392.3z
	 M88,440.3H56v-32h32V440.3z"/>
<path class="st4" d="M184,392.3h-48c-4.4,0-8,3.6-8,8v48c0,4.4,3.6,8,8,8h48c4.4,0,8-3.6,8-8v-48C192,395.9,188.4,392.3,184,392.3z
	 M176,440.3h-32v-32h32V440.3z"/>
<path class="st4" d="M272,392.3h-48c-4.4,0-8,3.6-8,8v48c0,4.4,3.6,8,8,8h48c4.4,0,8-3.6,8-8v-48C280,395.9,276.4,392.3,272,392.3z
	 M264,440.3h-32v-32h32V440.3z"/>
<path class="st4" d="M416,424.3c0,4.4-3.6,8-8,8H304c-4.4,0-8-3.6-8-8s3.6-8,8-8h104C412.4,416.3,416,419.9,416,424.3z"/>
<path class="st4" d="M456,424.3c0,4.4-3.6,8-8,8h-16c-4.4,0-8-3.6-8-8s3.6-8,8-8h16C452.4,416.3,456,419.9,456,424.3z"/>
<rect x="48" y="160.3" class="st5" width="400" height="129.3"/>
</svg>
