<?xml version="1.0" encoding="utf-8"?>
<!-- Generator: Adobe Illustrator 21.0.0, SVG Export Plug-In . SVG Version: 6.00 Build 0)  -->
<svg version="1.1" id="Layer_1" xmlns="http://www.w3.org/2000/svg" xmlns:xlink="http://www.w3.org/1999/xlink" x="0px" y="0px"
	 viewBox="0 0 496 496" style="enable-background:new 0 0 496 496;" xml:space="preserve">
<style type="text/css">
	.st0{fill:#95BABA;}
	.st1{fill:#00B0B9;}
	.st2{fill:none;stroke:#00B0B9;stroke-width:16;stroke-linejoin:round;stroke-miterlimit:10;}
</style>
<path class="st0" d="M488,72v48H8V72c0-8.8,7.2-16,16-16h48v32h32V56h288v32h32V56h48C480.8,56,488,63.2,488,72z"/>
<path class="st0" d="M48,152h408v129.3H48V152z"/>
<path class="st0" d="M48,312h48v48H48V312z"/>
<path class="st0" d="M136,312h48v48h-48V312z"/>
<path class="st0" d="M224,312h48v48h-48V312z"/>
<path class="st0" d="M312,312h48v48h-48V312z"/>
<path class="st0" d="M400,312h48v48h-48V312z"/>
<path class="st0" d="M48,392h48v48H48V392z"/>
<path class="st0" d="M136,392h48v48h-48V392z"/>
<path class="st0" d="M224,392h48v48h-48V392z"/>
<path class="st1" d="M472,48h-40V24c0-4.4-3.6-8-8-8h-32c-4.4,0-8,3.6-8,8v24H112V24c0-4.4-3.6-8-8-8H72c-4.4,0-8,3.6-8,8v24H24
	C10.7,48,0,58.7,0,72v384c0,13.3,10.7,24,24,24h448c13.3,0,24-10.7,24-24V72C496,58.7,485.3,48,472,48z M400,32h16v48h-16V32z
	 M80,32h16v48H80V32z M16,72c0-4.4,3.6-8,8-8h40v24c0,4.4,3.6,8,8,8h32c4.4,0,8-3.6,8-8V64h272v24c0,4.4,3.6,8,8,8h32
	c4.4,0,8-3.6,8-8V64h40c4.4,0,8,3.6,8,8v40H16V72z M480,456c0,4.4-3.6,8-8,8H24c-4.4,0-8-3.6-8-8V128h464V456z"/>
<path class="st1" d="M48,368h48c4.4,0,8-3.6,8-8v-48c0-4.4-3.6-8-8-8H48c-4.4,0-8,3.6-8,8v48C40,364.4,43.6,368,48,368z M56,320h32
	v32H56V320z"/>
<path class="st1" d="M136,368h48c4.4,0,8-3.6,8-8v-48c0-4.4-3.6-8-8-8h-48c-4.4,0-8,3.6-8,8v48C128,364.4,131.6,368,136,368z
	 M144,320h32v32h-32V320z"/>
<path class="st1" d="M224,368h48c4.4,0,8-3.6,8-8v-48c0-4.4-3.6-8-8-8h-48c-4.4,0-8,3.6-8,8v48C216,364.4,219.6,368,224,368z
	 M232,320h32v32h-32V320z"/>
<path class="st1" d="M312,368h48c4.4,0,8-3.6,8-8v-48c0-4.4-3.6-8-8-8h-48c-4.4,0-8,3.6-8,8v48C304,364.4,307.6,368,312,368z
	 M320,320h32v32h-32V320z"/>
<path class="st1" d="M400,368h48c4.4,0,8-3.6,8-8v-48c0-4.4-3.6-8-8-8h-48c-4.4,0-8,3.6-8,8v48C392,364.4,395.6,368,400,368z
	 M408,320h32v32h-32V320z"/>
<path class="st1" d="M48,448h48c4.4,0,8-3.6,8-8v-48c0-4.4-3.6-8-8-8H48c-4.4,0-8,3.6-8,8v48C40,444.4,43.6,448,48,448z M56,400h32
	v32H56V400z"/>
<path class="st1" d="M136,448h48c4.4,0,8-3.6,8-8v-48c0-4.4-3.6-8-8-8h-48c-4.4,0-8,3.6-8,8v48C128,444.4,131.6,448,136,448z
	 M144,400h32v32h-32V400z"/>
<path class="st1" d="M224,448h48c4.4,0,8-3.6,8-8v-48c0-4.4-3.6-8-8-8h-48c-4.4,0-8,3.6-8,8v48C216,444.4,219.6,448,224,448z
	 M232,400h32v32h-32V400z"/>
<path class="st1" d="M304,424h104c4.4,0,8-3.6,8-8s-3.6-8-8-8H304c-4.4,0-8,3.6-8,8S299.6,424,304,424z"/>
<path class="st1" d="M448,408h-16c-4.4,0-8,3.6-8,8s3.6,8,8,8h16c4.4,0,8-3.6,8-8S452.4,408,448,408z"/>
<rect x="48" y="152" class="st2" width="400" height="129.3"/>
</svg>
